<svg width="24" height="24" viewBox="0 0 24 24" fill="none" xmlns="http://www.w3.org/2000/svg">
<path d="M20.1912 14.06L19.0612 12.18C18.8112 11.77 18.5912 10.98 18.5912 10.5V8.63005C18.5912 5.00005 15.6412 2.05005 12.0212 2.05005C8.39118 2.06005 5.44118 5.00005 5.44118 8.63005V10.49C5.44118 10.97 5.22118 11.76 4.98118 12.17L3.85118 14.05C3.42118 14.78 3.32118 15.61 3.59118 16.33C3.86118 17.06 4.47118 17.64 5.27118 17.9C6.35118 18.26 7.44118 18.52 8.55118 18.71C8.66118 18.73 8.77118 18.74 8.88118 18.76C9.02118 18.7801 9.17118 18.8 9.32118 18.82C9.58118 18.8601 9.84118 18.89 10.1112 18.91C10.7412 18.97 11.3812 19 12.0212 19C12.6512 19 13.2812 18.97 13.9012 18.91C14.1312 18.89 14.3612 18.8701 14.5812 18.84C14.7612 18.82 14.9412 18.8001 15.1212 18.7701C15.2312 18.76 15.3412 18.74 15.4512 18.72C16.5712 18.54 17.6812 18.26 18.7612 17.9C19.5312 17.64 20.1212 17.06 20.4012 16.32C20.6812 15.57 20.6012 14.75 20.1912 14.06ZM12.7512 10C12.7512 10.42 12.4112 10.76 11.9912 10.76C11.5712 10.76 11.2312 10.42 11.2312 10V6.90005C11.2312 6.48005 11.5712 6.14005 11.9912 6.14005C12.4112 6.14005 12.7512 6.48005 12.7512 6.90005V10Z" fill="#292D32"/>
<path d="M14.8297 20.01C14.4097 21.17 13.2997 22 11.9997 22C11.2097 22 10.4297 21.68 9.87969 21.11C9.55969 20.81 9.31969 20.41 9.17969 20C9.30969 20.02 9.43969 20.03 9.57969 20.05C9.80969 20.08 10.0497 20.11 10.2897 20.13C10.8597 20.18 11.4397 20.21 12.0197 20.21C12.5897 20.21 13.1597 20.18 13.7197 20.13C13.9297 20.11 14.1397 20.1 14.3397 20.07C14.4997 20.05 14.6597 20.03 14.8297 20.01Z" fill="#292D32"/>
</svg>
