<svg width="24" height="24" viewBox="0 0 24 24" fill="none" xmlns="http://www.w3.org/2000/svg">
<path d="M17.6005 5.3093L11.9505 2.2693C11.3505 1.9493 10.6405 1.9493 10.0405 2.2693L4.40047 5.3093C3.99047 5.5393 3.73047 5.9793 3.73047 6.4593C3.73047 6.9493 3.98047 7.3893 4.40047 7.6093L10.0505 10.6493C10.3505 10.8093 10.6805 10.8893 11.0005 10.8893C11.3205 10.8893 11.6605 10.8093 11.9505 10.6493L17.6005 7.6093C18.0105 7.3893 18.2705 6.9493 18.2705 6.4593C18.2705 5.9793 18.0105 5.5393 17.6005 5.3093Z" fill="white"/>
<path d="M9.12 11.7091L3.87 9.08911C3.46 8.87911 3 8.90911 2.61 9.13911C2.23 9.37911 2 9.78911 2 10.2391V15.1991C2 16.0591 2.48 16.8291 3.25 17.2191L8.5 19.8391C8.68 19.9291 8.88 19.9791 9.08 19.9791C9.31 19.9791 9.55 19.9091 9.76 19.7891C10.14 19.5491 10.37 19.1391 10.37 18.6891V13.7291C10.36 12.8691 9.88 12.0991 9.12 11.7091Z" fill="white"/>
<path d="M20.0006 10.2391V12.6991C19.5206 12.5591 19.0106 12.4991 18.5006 12.4991C17.1406 12.4991 15.8106 12.9691 14.7606 13.8091C13.3206 14.9391 12.5006 16.6491 12.5006 18.4991C12.5006 18.9891 12.5606 19.4791 12.6906 19.9491C12.5406 19.9291 12.3906 19.8691 12.2506 19.7791C11.8706 19.5491 11.6406 19.1391 11.6406 18.6891V13.7291C11.6406 12.8691 12.1206 12.0991 12.8806 11.7091L18.1306 9.08911C18.5406 8.87911 19.0006 8.90911 19.3906 9.13911C19.7706 9.37911 20.0006 9.78911 20.0006 10.2391Z" fill="white"/>
<path d="M21.98 15.6695C21.16 14.6595 19.91 14.0195 18.5 14.0195C17.44 14.0195 16.46 14.3895 15.69 15.0095C14.65 15.8295 14 17.0995 14 18.5195C14 19.3595 14.24 20.1595 14.65 20.8395C14.92 21.2895 15.26 21.6795 15.66 21.9995H15.67C16.44 22.6395 17.43 23.0195 18.5 23.0195C19.64 23.0195 20.67 22.5995 21.46 21.8995C21.81 21.5995 22.11 21.2395 22.35 20.8395C22.76 20.1595 23 19.3595 23 18.5195C23 17.4395 22.62 16.4395 21.98 15.6695ZM20.76 17.9595L18.36 20.1795C18.22 20.3095 18.03 20.3795 17.85 20.3795C17.66 20.3795 17.47 20.3095 17.32 20.1595L16.21 19.0495C15.92 18.7595 15.92 18.2795 16.21 17.9895C16.5 17.6995 16.98 17.6995 17.27 17.9895L17.87 18.5895L19.74 16.8595C20.04 16.5795 20.52 16.5995 20.8 16.8995C21.09 17.2095 21.07 17.6795 20.76 17.9595Z" fill="white"/>
</svg>
