<svg width="16" height="16" viewBox="0 0 16 16" fill="none" xmlns="http://www.w3.org/2000/svg">
<path d="M12.0014 4.00004C11.5947 4.00004 11.2214 3.76671 11.0347 3.40671L10.5547 2.44004C10.2481 1.83337 9.44808 1.33337 8.76808 1.33337H7.24141C6.55475 1.33337 5.75475 1.83337 5.44808 2.44004L4.96808 3.40671C4.78141 3.76671 4.40808 4.00004 4.00141 4.00004C2.55475 4.00004 1.40808 5.22004 1.50141 6.66004L1.84808 12.1667C1.92808 13.54 2.66808 14.6667 4.50808 14.6667H11.4947C13.3347 14.6667 14.0681 13.54 14.1547 12.1667L14.5014 6.66004C14.5947 5.22004 13.4481 4.00004 12.0014 4.00004ZM7.00141 4.83337H9.00141C9.27475 4.83337 9.50141 5.06004 9.50141 5.33337C9.50141 5.60671 9.27475 5.83337 9.00141 5.83337H7.00141C6.72808 5.83337 6.50141 5.60671 6.50141 5.33337C6.50141 5.06004 6.72808 4.83337 7.00141 4.83337ZM8.00141 12.08C6.76141 12.08 5.74808 11.0734 5.74808 9.82671C5.74808 8.58004 6.75475 7.57337 8.00141 7.57337C9.24808 7.57337 10.2547 8.58004 10.2547 9.82671C10.2547 11.0734 9.24141 12.08 8.00141 12.08Z" fill="#292D32"/>
</svg>
