<svg width="24" height="25" viewBox="0 0 24 25" fill="none" xmlns="http://www.w3.org/2000/svg">
<path d="M22 8.41367C22 9.07367 21.46 9.61367 20.8 9.61367H3.2C2.54 9.61367 2 9.07367 2 8.41367V8.40367C2 6.11367 3.85 4.26367 6.14 4.26367H17.85C20.14 4.26367 22 6.12367 22 8.41367Z" fill="white"/>
<path d="M2 12.3138V17.3238C2 19.6138 3.85 21.4638 6.14 21.4638H17.85C20.14 21.4638 22 19.6038 22 17.3138V12.3138C22 11.6538 21.46 11.1138 20.8 11.1138H3.2C2.54 11.1138 2 11.6538 2 12.3138ZM8 18.1138H6C5.59 18.1138 5.25 17.7738 5.25 17.3638C5.25 16.9538 5.59 16.6138 6 16.6138H8C8.41 16.6138 8.75 16.9538 8.75 17.3638C8.75 17.7738 8.41 18.1138 8 18.1138ZM14.5 18.1138H10.5C10.09 18.1138 9.75 17.7738 9.75 17.3638C9.75 16.9538 10.09 16.6138 10.5 16.6138H14.5C14.91 16.6138 15.25 16.9538 15.25 17.3638C15.25 17.7738 14.91 18.1138 14.5 18.1138Z" fill="white"/>
</svg>
