<svg width="186" height="181" viewBox="0 0 186 181" fill="none" xmlns="http://www.w3.org/2000/svg">
<circle cx="95" cy="90" r="70" fill="#F26520"/>
<path d="M120 78.875C120 80.525 118.65 81.875 117 81.875H73C71.35 81.875 70 80.525 70 78.875V78.85C70 73.125 74.625 68.5 80.35 68.5H109.625C115.35 68.5 120 73.15 120 78.875Z" fill="white"/>
<path d="M70 88.625V101.15C70 106.875 74.625 111.5 80.35 111.5H109.625C115.35 111.5 120 106.85 120 101.125V88.625C120 86.975 118.65 85.625 117 85.625H73C71.35 85.625 70 86.975 70 88.625ZM85 103.125H80C78.975 103.125 78.125 102.275 78.125 101.25C78.125 100.225 78.975 99.375 80 99.375H85C86.025 99.375 86.875 100.225 86.875 101.25C86.875 102.275 86.025 103.125 85 103.125ZM101.25 103.125H91.25C90.225 103.125 89.375 102.275 89.375 101.25C89.375 100.225 90.225 99.375 91.25 99.375H101.25C102.275 99.375 103.125 100.225 103.125 101.25C103.125 102.275 102.275 103.125 101.25 103.125Z" fill="white"/>
<circle cx="20" cy="10" r="10" fill="#FC7233" fill-opacity="0.6"/>
<circle cx="107" cy="4" r="3" fill="#FC7233" fill-opacity="0.6"/>
<circle cx="178.5" cy="27.5" r="7.5" fill="#FC7233" fill-opacity="0.6"/>
<circle cx="165.5" cy="160.5" r="2.5" fill="#FC7233" fill-opacity="0.6"/>
<circle cx="62" cy="177" r="4" fill="#FC7233" fill-opacity="0.6"/>
<circle cx="10" cy="133" r="6" fill="#FC7233" fill-opacity="0.6"/>
<circle cx="1" cy="75" r="1" fill="#FC7233" fill-opacity="0.6"/>
<circle cx="122" cy="171" r="1" fill="#FC7233" fill-opacity="0.6"/>
<circle cx="170.5" cy="110.5" r="2.5" fill="#FC7233" fill-opacity="0.6"/>
</svg>
