<svg width="25" height="24" viewBox="0 0 25 24" fill="none" xmlns="http://www.w3.org/2000/svg">
<path d="M18.1 5.31027L12.45 2.27027C11.85 1.95027 11.14 1.95027 10.54 2.27027L4.89998 5.31027C4.48998 5.54027 4.22998 5.98027 4.22998 6.46027C4.22998 6.95027 4.47998 7.39027 4.89998 7.61027L10.55 10.6503C10.85 10.8103 11.18 10.8903 11.5 10.8903C11.82 10.8903 12.16 10.8103 12.45 10.6503L18.1 7.61027C18.51 7.39027 18.77 6.95027 18.77 6.46027C18.77 5.98027 18.51 5.54027 18.1 5.31027Z" fill="#E3EFFF"/>
<path d="M9.62 11.7106L4.37 9.09058C3.96 8.88058 3.5 8.91058 3.11 9.14058C2.73 9.38058 2.5 9.79058 2.5 10.2406V15.2006C2.5 16.0606 2.98 16.8306 3.75 17.2206L9 19.8406C9.18 19.9306 9.38 19.9806 9.58 19.9806C9.81 19.9806 10.05 19.9106 10.26 19.7906C10.64 19.5506 10.87 19.1406 10.87 18.6906V13.7306C10.86 12.8706 10.38 12.1006 9.62 11.7106Z" fill="#E3EFFF"/>
<path d="M20.5001 10.2406V12.7006C20.0201 12.5606 19.5101 12.5006 19.0001 12.5006C17.6401 12.5006 16.3101 12.9706 15.2601 13.8106C13.8201 14.9406 13.0001 16.6506 13.0001 18.5006C13.0001 18.9906 13.0601 19.4806 13.1901 19.9506C13.0401 19.9306 12.8901 19.8706 12.7501 19.7806C12.3701 19.5506 12.1401 19.1406 12.1401 18.6906V13.7306C12.1401 12.8706 12.6201 12.1006 13.3801 11.7106L18.6301 9.09058C19.0401 8.88058 19.5001 8.91058 19.8901 9.14058C20.2701 9.38058 20.5001 9.79058 20.5001 10.2406Z" fill="#E3EFFF"/>
<path d="M22.5 15.7C22.5 15.69 22.49 15.68 22.48 15.67C22.44 15.61 22.39 15.55 22.34 15.5C22.33 15.49 22.32 15.47 22.31 15.46C21.5 14.56 20.31 14 19 14C17.74 14 16.59 14.52 15.77 15.36C14.98 16.17 14.5 17.28 14.5 18.5C14.5 19.34 14.74 20.14 15.15 20.82C15.37 21.19 15.65 21.53 15.97 21.81C15.99 21.82 16 21.83 16.01 21.84C16.06 21.89 16.11 21.93 16.17 21.98C16.17 21.98 16.17 21.98 16.18 21.98C16.19 21.99 16.2 22 16.21 22C16.96 22.63 17.93 23 19 23C20.64 23 22.07 22.12 22.85 20.82C23.08 20.43 23.26 20 23.37 19.55C23.46 19.21 23.5 18.86 23.5 18.5C23.5 17.44 23.13 16.46 22.5 15.7ZM20.68 19.23H19.75V20.2C19.75 20.61 19.41 20.95 19 20.95C18.59 20.95 18.25 20.61 18.25 20.2V19.23H17.32C16.91 19.23 16.57 18.89 16.57 18.48C16.57 18.07 16.91 17.73 17.32 17.73H18.25V16.84C18.25 16.43 18.59 16.09 19 16.09C19.41 16.09 19.75 16.43 19.75 16.84V17.73H20.68C21.09 17.73 21.43 18.07 21.43 18.48C21.43 18.89 21.1 19.23 20.68 19.23Z" fill="#E3EFFF"/>
</svg>
