<svg width="24" height="24" viewBox="0 0 24 24" fill="none" xmlns="http://www.w3.org/2000/svg">
<path opacity="0.4" d="M15.48 3H7.52C4.07 3 2 5.06 2 8.52V16.47C2 19.94 4.07 22 7.52 22H15.47C18.93 22 20.99 19.94 20.99 16.48V8.52C21 5.06 18.93 3 15.48 3Z" fill="#FC7233"/>
<path d="M21.0195 2.98003C19.2295 1.18003 17.4795 1.14003 15.6395 2.98003L14.5095 4.10003C14.4095 4.20003 14.3795 4.34003 14.4195 4.47003C15.1195 6.92003 17.0795 8.88003 19.5295 9.58003C19.5595 9.59003 19.6095 9.59003 19.6395 9.59003C19.7395 9.59003 19.8395 9.55003 19.9095 9.48003L21.0195 8.36003C21.9295 7.45003 22.3795 6.58003 22.3795 5.69003C22.3795 4.79003 21.9295 3.90003 21.0195 2.98003Z" fill="#FC7233"/>
<path d="M17.8611 10.4201C17.5911 10.2901 17.3311 10.1601 17.0911 10.0101C16.8911 9.89009 16.6911 9.76009 16.5011 9.62009C16.3411 9.52009 16.1611 9.37009 15.9811 9.22009C15.9611 9.21009 15.9011 9.16009 15.8211 9.08009C15.5111 8.83009 15.1811 8.49009 14.8711 8.12009C14.8511 8.10009 14.7911 8.04009 14.7411 7.95009C14.6411 7.84009 14.4911 7.65009 14.3611 7.44009C14.2511 7.30009 14.1211 7.10009 14.0011 6.89009C13.8511 6.64009 13.7211 6.39009 13.6011 6.13009C13.4711 5.85009 13.3711 5.59009 13.2811 5.34009L7.90108 10.7201C7.55108 11.0701 7.21108 11.7301 7.14108 12.2201L6.71108 15.2001C6.62108 15.8301 6.79108 16.4201 7.18108 16.8101C7.51108 17.1401 7.96108 17.3101 8.46108 17.3101C8.57108 17.3101 8.68108 17.3001 8.79108 17.2901L11.7611 16.8701C12.2511 16.8001 12.9111 16.4701 13.2611 16.1101L18.6411 10.7301C18.3911 10.6501 18.1411 10.5401 17.8611 10.4201Z" fill="#FC7233"/>
</svg>
