<svg width="18" height="16" viewBox="0 0 18 16" fill="none" xmlns="http://www.w3.org/2000/svg">
<path d="M13.168 0.916748H4.83464C2.33464 0.916748 0.667969 2.16675 0.667969 5.08342V10.9167C0.667969 13.8334 2.33464 15.0834 4.83464 15.0834H13.168C15.668 15.0834 17.3346 13.8334 17.3346 10.9167V5.08342C17.3346 2.16675 15.668 0.916748 13.168 0.916748ZM13.5596 5.99175L10.9513 8.07508C10.4013 8.51675 9.7013 8.73342 9.0013 8.73342C8.3013 8.73342 7.59297 8.51675 7.0513 8.07508L4.44297 5.99175C4.1763 5.77508 4.13464 5.37508 4.34297 5.10841C4.55964 4.84175 4.9513 4.79175 5.21797 5.00841L7.8263 7.09175C8.45964 7.60008 9.53464 7.60008 10.168 7.09175L12.7763 5.00841C13.043 4.79175 13.443 4.83341 13.6513 5.10841C13.868 5.37508 13.8263 5.77508 13.5596 5.99175Z" fill="#667085"/>
</svg>
