<svg width="22" height="22" viewBox="0 0 22 22" fill="none" xmlns="http://www.w3.org/2000/svg">
<path d="M14.6663 1.83398H7.33301C3.66634 1.83398 1.83301 3.66732 1.83301 7.33398V19.2507C1.83301 19.7548 2.24551 20.1673 2.74967 20.1673H14.6663C18.333 20.1673 20.1663 18.334 20.1663 14.6673V7.33398C20.1663 3.66732 18.333 1.83398 14.6663 1.83398ZM12.833 13.9798H6.41634C6.04051 13.9798 5.72884 13.6682 5.72884 13.2923C5.72884 12.9165 6.04051 12.6048 6.41634 12.6048H12.833C13.2088 12.6048 13.5205 12.9165 13.5205 13.2923C13.5205 13.6682 13.2088 13.9798 12.833 13.9798ZM15.583 9.39648H6.41634C6.04051 9.39648 5.72884 9.08482 5.72884 8.70898C5.72884 8.33315 6.04051 8.02148 6.41634 8.02148H15.583C15.9588 8.02148 16.2705 8.33315 16.2705 8.70898C16.2705 9.08482 15.9588 9.39648 15.583 9.39648Z" fill="#FC7233"/>
</svg>
