<svg width="18" height="20" viewBox="0 0 18 20" fill="none" xmlns="http://www.w3.org/2000/svg">
<path d="M14.8093 2.47C14.7293 2.47 14.6493 2.45 14.5793 2.41C12.6593 1.42 10.9993 1 9.00925 1C7.02925 1 5.14925 1.47 3.43925 2.41C3.19925 2.54 2.89925 2.45 2.75925 2.21C2.62925 1.97 2.71925 1.66 2.95925 1.53C4.81925 0.52 6.85925 0 9.00925 0C11.1393 0 12.9993 0.47 15.0393 1.52C15.2893 1.65 15.3793 1.95 15.2493 2.19C15.1593 2.37 14.9893 2.47 14.8093 2.47ZM0.499253 7.72C0.399253 7.72 0.299253 7.69 0.209253 7.63C-0.0207474 7.47 -0.0707475 7.16 0.0892525 6.93C1.07925 5.53 2.33925 4.43 3.83925 3.66C6.97925 2.04 10.9993 2.03 14.1493 3.65C15.6493 4.42 16.9093 5.51 17.8993 6.9C18.0593 7.12 18.0093 7.44 17.7793 7.6C17.5493 7.76 17.2393 7.71 17.0793 7.48C16.1793 6.22 15.0393 5.23 13.6893 4.54C10.8193 3.07 7.14925 3.07 4.28925 4.55C2.92925 5.25 1.78925 6.25 0.889253 7.51C0.809253 7.65 0.659253 7.72 0.499253 7.72ZM6.74925 19.79C6.61925 19.79 6.48925 19.74 6.39925 19.64C5.52925 18.77 5.05925 18.21 4.38925 17C3.69925 15.77 3.33925 14.27 3.33925 12.66C3.33925 9.69 5.87925 7.27 8.99925 7.27C12.1193 7.27 14.6593 9.69 14.6593 12.66C14.6593 12.94 14.4393 13.16 14.1593 13.16C13.8793 13.16 13.6593 12.94 13.6593 12.66C13.6593 10.24 11.5693 8.27 8.99925 8.27C6.42925 8.27 4.33925 10.24 4.33925 12.66C4.33925 14.1 4.65925 15.43 5.26925 16.51C5.90925 17.66 6.34925 18.15 7.11925 18.93C7.30925 19.13 7.30925 19.44 7.11925 19.64C7.00925 19.74 6.87925 19.79 6.74925 19.79ZM13.9193 17.94C12.7293 17.94 11.6793 17.64 10.8193 17.05C9.32925 16.04 8.43925 14.4 8.43925 12.66C8.43925 12.38 8.65925 12.16 8.93925 12.16C9.21925 12.16 9.43925 12.38 9.43925 12.66C9.43925 14.07 10.1593 15.4 11.3793 16.22C12.0893 16.7 12.9193 16.93 13.9193 16.93C14.1593 16.93 14.5593 16.9 14.9593 16.83C15.2293 16.78 15.4893 16.96 15.5393 17.24C15.5893 17.51 15.4093 17.77 15.1293 17.82C14.5593 17.93 14.0593 17.94 13.9193 17.94ZM11.9093 20C11.8693 20 11.8193 19.99 11.7793 19.98C10.1893 19.54 9.14925 18.95 8.05925 17.88C6.65925 16.49 5.88925 14.64 5.88925 12.66C5.88925 11.04 7.26925 9.72 8.96925 9.72C10.6693 9.72 12.0493 11.04 12.0493 12.66C12.0493 13.73 12.9793 14.6 14.1293 14.6C15.2793 14.6 16.2093 13.73 16.2093 12.66C16.2093 8.89 12.9593 5.83 8.95925 5.83C6.11925 5.83 3.51925 7.41 2.34925 9.86C1.95925 10.67 1.75925 11.62 1.75925 12.66C1.75925 13.44 1.82925 14.67 2.42925 16.27C2.52925 16.53 2.39925 16.82 2.13925 16.91C1.87925 17.01 1.58925 16.87 1.49925 16.62C1.00925 15.31 0.769253 14.01 0.769253 12.66C0.769253 11.46 0.999253 10.37 1.44925 9.42C2.77925 6.63 5.72925 4.82 8.95925 4.82C13.5093 4.82 17.2093 8.33 17.2093 12.65C17.2093 14.27 15.8293 15.59 14.1293 15.59C12.4293 15.59 11.0493 14.27 11.0493 12.65C11.0493 11.58 10.1193 10.71 8.96925 10.71C7.81925 10.71 6.88925 11.58 6.88925 12.65C6.88925 14.36 7.54925 15.96 8.75925 17.16C9.70925 18.1 10.6193 18.62 12.0293 19.01C12.2993 19.08 12.4493 19.36 12.3793 19.62C12.3293 19.85 12.1193 20 11.9093 20Z" fill="#101828"/>
</svg>
