<svg width="16" height="16" viewBox="0 0 16 16" fill="none" xmlns="http://www.w3.org/2000/svg">
<path d="M1.72052 12.6734L1.70719 12.6867C1.52719 12.2934 1.41385 11.8467 1.36719 11.3534C1.41385 11.8401 1.54052 12.2801 1.72052 12.6734Z" fill="#292D32"/>
<path d="M6.00073 6.92004C6.87702 6.92004 7.5874 6.20966 7.5874 5.33337C7.5874 4.45708 6.87702 3.7467 6.00073 3.7467C5.12444 3.7467 4.41406 4.45708 4.41406 5.33337C4.41406 6.20966 5.12444 6.92004 6.00073 6.92004Z" fill="#292D32"/>
<path d="M10.792 1.33337H5.20536C2.7787 1.33337 1.33203 2.78004 1.33203 5.20671V10.7934C1.33203 11.52 1.4587 12.1534 1.70536 12.6867C2.2787 13.9534 3.50536 14.6667 5.20536 14.6667H10.792C13.2187 14.6667 14.6654 13.22 14.6654 10.7934V9.26671V5.20671C14.6654 2.78004 13.2187 1.33337 10.792 1.33337ZM13.5787 8.33337C13.0587 7.88671 12.2187 7.88671 11.6987 8.33337L8.92536 10.7134C8.40536 11.16 7.56536 11.16 7.04536 10.7134L6.8187 10.5267C6.34536 10.1134 5.59203 10.0734 5.0587 10.4334L2.56536 12.1067C2.4187 11.7334 2.33203 11.3 2.33203 10.7934V5.20671C2.33203 3.32671 3.32536 2.33337 5.20536 2.33337H10.792C12.672 2.33337 13.6654 3.32671 13.6654 5.20671V8.40671L13.5787 8.33337Z" fill="#292D32"/>
</svg>
