<svg width="16" height="16" viewBox="0 0 16 16" fill="none" xmlns="http://www.w3.org/2000/svg">
<path d="M10.7945 1.55371H5.20781C2.78114 1.55371 1.33447 3.00704 1.33447 5.43371V11.0137C1.33447 13.4404 2.78114 14.887 5.20781 14.887H10.7878C13.2145 14.887 14.6611 13.4404 14.6611 11.0137V5.43371C14.6678 3.00704 13.2211 1.55371 10.7945 1.55371ZM7.71447 11.4137C7.71447 11.6137 7.61447 11.7937 7.44114 11.9004C7.34781 11.9604 7.24781 11.987 7.14114 11.987C7.05447 11.987 6.96781 11.967 6.88114 11.927L4.54781 10.7604C4.21447 10.587 4.00114 10.247 4.00114 9.86704V7.66038C4.00114 7.46038 4.10114 7.28038 4.27447 7.17371C4.44781 7.06704 4.65447 7.06038 4.83447 7.14704L7.16781 8.31371C7.50781 8.48704 7.72114 8.82704 7.72114 9.20704V11.4137H7.71447ZM7.57447 7.84704L5.06781 6.49371C4.88781 6.39371 4.77447 6.20038 4.77447 5.98038C4.77447 5.76704 4.88781 5.56704 5.06781 5.46704L7.57447 4.11371C7.84114 3.97371 8.15447 3.97371 8.42114 4.11371L10.9278 5.46704C11.1078 5.56704 11.2211 5.76038 11.2211 5.98038C11.2211 6.20038 11.1078 6.39371 10.9278 6.49371L8.42114 7.84704C8.28781 7.92038 8.14114 7.95371 7.99447 7.95371C7.84781 7.95371 7.70781 7.92038 7.57447 7.84704ZM12.0011 9.86704C12.0011 10.247 11.7878 10.5937 11.4478 10.7604L9.11447 11.927C9.03447 11.967 8.94781 11.987 8.85447 11.987C8.74781 11.987 8.64781 11.9604 8.55447 11.9004C8.38114 11.7937 8.28114 11.6137 8.28114 11.4137V9.20704C8.28114 8.82704 8.49447 8.48038 8.83447 8.31371L11.1678 7.14704C11.3478 7.06038 11.5545 7.06704 11.7278 7.17371C11.9011 7.28038 12.0011 7.46038 12.0011 7.66038V9.86704Z" fill="#292D32"/>
</svg>
