<svg width="16" height="16" viewBox="0 0 16 16" fill="none" xmlns="http://www.w3.org/2000/svg">
<path d="M12 1.33301H4C2.89333 1.33301 2 2.21967 2 3.31301V10.5863C2 11.6797 2.89333 12.5663 4 12.5663H4.50667C5.04 12.5663 5.54667 12.773 5.92 13.1463L7.06 14.273C7.58 14.7863 8.42667 14.7863 8.94667 14.273L10.0867 13.1463C10.46 12.773 10.9733 12.5663 11.5 12.5663H12C13.1067 12.5663 14 11.6797 14 10.5863V3.31301C14 2.21967 13.1067 1.33301 12 1.33301ZM6.92 8.67301C7.19333 8.67301 7.42 8.89967 7.42 9.17301C7.42 9.44634 7.19333 9.67301 6.92 9.67301H5.13333C4.84 9.67301 4.56667 9.53301 4.39333 9.29301C4.22667 9.06634 4.18667 8.78634 4.26667 8.51967C4.5 7.80634 5.07333 7.41967 5.58 7.07301C6.11333 6.71301 6.41333 6.48634 6.41333 6.09967C6.41333 5.75301 6.13333 5.47301 5.78667 5.47301C5.44 5.47301 5.16667 5.75967 5.16667 6.10634C5.16667 6.37967 4.94 6.60634 4.66667 6.60634C4.39333 6.60634 4.16667 6.37967 4.16667 6.10634C4.16667 5.21301 4.89333 4.47967 5.79333 4.47967C6.69333 4.47967 7.42 5.20634 7.42 6.10634C7.42 7.04634 6.71333 7.52634 6.14667 7.91301C5.79333 8.15301 5.46 8.37967 5.29333 8.67968H6.92V8.67301ZM11.3333 8.71967H11.1933V9.17968C11.1933 9.45301 10.9667 9.67968 10.6933 9.67968C10.42 9.67968 10.1933 9.45301 10.1933 9.17968V8.71967H8.88667C8.88667 8.71967 8.88667 8.71967 8.88 8.71967C8.55333 8.71967 8.25333 8.54634 8.08667 8.26634C7.92 7.97967 7.92 7.62634 8.08667 7.34634C8.54 6.56634 9.06667 5.67967 9.54667 4.90634C9.76 4.56634 10.1667 4.41301 10.5467 4.51967C10.9267 4.63301 11.1933 4.97967 11.1867 5.37967V7.72634H11.3333C11.6067 7.72634 11.8333 7.95301 11.8333 8.22634C11.8333 8.49967 11.6067 8.71967 11.3333 8.71967Z" fill="#292D32"/>
<path d="M10.1935 7.71977V5.75977C9.80019 6.39977 9.39352 7.08643 9.02686 7.7131H10.1935V7.71977Z" fill="#292D32"/>
</svg>
