<svg width="16" height="16" viewBox="0 0 16 16" fill="none" xmlns="http://www.w3.org/2000/svg">
<g clip-path="url(#clip0_7251_137589)">
<path d="M6.0587 6.00016C6.21543 5.55461 6.5248 5.1789 6.932 4.93958C7.3392 4.70027 7.81796 4.61279 8.28348 4.69264C8.749 4.77249 9.17124 5.01451 9.47542 5.37585C9.77959 5.73718 9.94607 6.19451 9.94536 6.66683C9.94536 8.00016 7.94536 8.66683 7.94536 8.66683M7.9987 11.3335H8.00536M14.6654 8.00016C14.6654 11.6821 11.6806 14.6668 7.9987 14.6668C4.3168 14.6668 1.33203 11.6821 1.33203 8.00016C1.33203 4.31826 4.3168 1.3335 7.9987 1.3335C11.6806 1.3335 14.6654 4.31826 14.6654 8.00016Z" stroke="#F26520" stroke-width="1.33333" stroke-linecap="round" stroke-linejoin="round"/>
</g>
<defs>
<clipPath id="clip0_7251_137589">
<rect width="16" height="16" fill="white"/>
</clipPath>
</defs>
</svg>
