<svg width="16" height="16" viewBox="0 0 16 16" fill="none" xmlns="http://www.w3.org/2000/svg">
<path d="M10.7935 1.33301H5.20683C2.78016 1.33301 1.3335 2.77967 1.3335 5.20634V10.7863C1.3335 13.2197 2.78016 14.6663 5.20683 14.6663H10.7868C13.2135 14.6663 14.6602 13.2197 14.6602 10.793V5.20634C14.6668 2.77967 13.2202 1.33301 10.7935 1.33301ZM10.5002 10.4997H5.50016C5.22683 10.4997 5.00016 10.273 5.00016 9.99967C5.00016 9.72634 5.22683 9.49967 5.50016 9.49967H10.5002C10.7735 9.49967 11.0002 9.72634 11.0002 9.99967C11.0002 10.273 10.7735 10.4997 10.5002 10.4997ZM10.5002 6.49967H5.50016C5.22683 6.49967 5.00016 6.27301 5.00016 5.99967C5.00016 5.72634 5.22683 5.49967 5.50016 5.49967H10.5002C10.7735 5.49967 11.0002 5.72634 11.0002 5.99967C11.0002 6.27301 10.7735 6.49967 10.5002 6.49967Z" fill="#292D32"/>
</svg>
