<svg width="21" height="20" viewBox="0 0 21 20" fill="none" xmlns="http://www.w3.org/2000/svg">
<path d="M19.0383 4.81994L13.2783 0.789938C11.7083 -0.310062 9.29828 -0.250062 7.78828 0.919938L2.77828 4.82994C1.77828 5.60994 0.988281 7.20994 0.988281 8.46994V15.3699C0.988281 17.9199 3.05828 19.9999 5.60828 19.9999H16.3883C18.9383 19.9999 21.0083 17.9299 21.0083 15.3799V8.59994C21.0083 7.24994 20.1383 5.58994 19.0383 4.81994ZM11.7483 15.9999C11.7483 16.4099 11.4083 16.7499 10.9983 16.7499C10.5883 16.7499 10.2483 16.4099 10.2483 15.9999V12.9999C10.2483 12.5899 10.5883 12.2499 10.9983 12.2499C11.4083 12.2499 11.7483 12.5899 11.7483 12.9999V15.9999Z" fill="#101828"/>
</svg>
