<svg width="20" height="20" viewBox="0 0 20 20" fill="none" xmlns="http://www.w3.org/2000/svg">
<path d="M17.7255 7.64992C17.4839 7.26659 17.2255 6.90825 16.9589 6.57492C16.6505 6.18325 16.0672 6.14992 15.7172 6.49992L13.2172 8.99992C13.4005 9.54992 13.4339 10.1833 13.2672 10.8416C12.9755 12.0166 12.0255 12.9666 10.8505 13.2583C10.1922 13.4249 9.55886 13.3916 9.00886 13.2083C9.00886 13.2083 7.81719 14.3999 6.95886 15.2583C6.54219 15.6749 6.67553 16.4083 7.23386 16.6249C8.12553 16.9666 9.05053 17.1416 10.0005 17.1416C11.4839 17.1416 12.9255 16.7083 14.2422 15.8999C15.5839 15.0666 16.7922 13.8416 17.7672 12.2833C18.5589 11.0249 18.5172 8.90825 17.7255 7.64992Z" fill="#667085"/>
<path d="M11.6839 8.3167L8.31719 11.6834C7.89219 11.25 7.61719 10.65 7.61719 10C7.61719 8.6917 8.68385 7.6167 10.0005 7.6167C10.6505 7.6167 11.2505 7.8917 11.6839 8.3167Z" fill="#667085"/>
<path d="M15.2096 4.79173L12.3846 7.61673C11.7763 7.00006 10.9346 6.6334 10.0013 6.6334C8.13464 6.6334 6.63464 8.14173 6.63464 10.0001C6.63464 10.9334 7.00964 11.7751 7.61797 12.3834L4.8013 15.2084H4.79297C3.86797 14.4584 3.01797 13.5001 2.29297 12.3667C1.45964 11.0584 1.45964 8.9334 2.29297 7.62506C3.25964 6.1084 4.44297 4.91673 5.75963 4.10007C7.0763 3.30007 8.51797 2.8584 10.0013 2.8584C11.8596 2.8584 13.6596 3.54173 15.2096 4.79173Z" fill="#667085"/>
<path d="M12.3844 10.0001C12.3844 11.3084 11.3177 12.3834 10.001 12.3834C9.95104 12.3834 9.90937 12.3834 9.85938 12.3667L12.3677 9.8584C12.3844 9.9084 12.3844 9.95007 12.3844 10.0001Z" fill="#667085"/>
<path d="M18.1427 1.8584C17.8927 1.6084 17.4844 1.6084 17.2344 1.8584L1.85938 17.2417C1.60937 17.4917 1.60937 17.9001 1.85938 18.1501C1.98438 18.2667 2.14271 18.3334 2.30938 18.3334C2.47604 18.3334 2.63437 18.2667 2.75937 18.1417L18.1427 2.7584C18.401 2.5084 18.401 2.1084 18.1427 1.8584Z" fill="#667085"/>
</svg>
