<svg width="20" height="21" viewBox="0 0 20 21" fill="none" xmlns="http://www.w3.org/2000/svg">
<path d="M9.99896 14.9584C10.7491 14.9584 11.3573 14.3502 11.3573 13.6C11.3573 12.8498 10.7491 12.2417 9.99896 12.2417C9.24877 12.2417 8.64062 12.8498 8.64062 13.6C8.64062 14.3502 9.24877 14.9584 9.99896 14.9584Z" fill="#344054"/>
<path d="M15.2346 8.44175V7.40008C15.2346 5.15008 14.693 2.16675 10.0013 2.16675C5.30964 2.16675 4.76797 5.15008 4.76797 7.40008V8.44175C2.43464 8.73341 1.66797 9.91675 1.66797 12.8251V14.3751C1.66797 17.7917 2.70964 18.8334 6.1263 18.8334H13.8763C17.293 18.8334 18.3346 17.7917 18.3346 14.3751V12.8251C18.3346 9.91675 17.568 8.73341 15.2346 8.44175ZM10.0013 16.1167C8.60964 16.1167 7.48464 14.9834 7.48464 13.6001C7.48464 12.2084 8.61797 11.0834 10.0013 11.0834C11.3846 11.0834 12.518 12.2167 12.518 13.6001C12.518 14.9917 11.393 16.1167 10.0013 16.1167ZM6.1263 8.36675C6.05964 8.36675 6.0013 8.36675 5.93464 8.36675V7.40008C5.93464 4.95841 6.6263 3.33341 10.0013 3.33341C13.3763 3.33341 14.068 4.95841 14.068 7.40008V8.37508C14.0013 8.37508 13.943 8.37508 13.8763 8.37508H6.1263V8.36675Z" fill="#344054"/>
</svg>
