<svg width="16" height="16" viewBox="0 0 16 16" fill="none" xmlns="http://www.w3.org/2000/svg">
<path d="M5.25349 8.04634C5.25349 7.77301 5.48016 7.54634 5.75349 7.54634H9.40682V1.90634C9.40016 1.58634 9.14682 1.33301 8.82682 1.33301C4.90016 1.33301 2.16016 4.07301 2.16016 7.99967C2.16016 11.9263 4.90016 14.6663 8.82682 14.6663C9.14016 14.6663 9.40016 14.413 9.40016 14.093V8.53967H5.75349C5.47349 8.54634 5.25349 8.31967 5.25349 8.04634Z" fill="#F75555"/>
<path d="M13.6932 7.69344L11.7999 5.79344C11.6066 5.6001 11.2866 5.6001 11.0932 5.79344C10.8999 5.98677 10.8999 6.30677 11.0932 6.5001L12.1332 7.5401H9.3999V8.5401H12.1266L11.0866 9.5801C10.8932 9.77344 10.8932 10.0934 11.0866 10.2868C11.1866 10.3868 11.3132 10.4334 11.4399 10.4334C11.5666 10.4334 11.6932 10.3868 11.7932 10.2868L13.6866 8.38677C13.8866 8.2001 13.8866 7.88677 13.6932 7.69344Z" fill="#F75555"/>
</svg>
