<svg width="22" height="22" viewBox="0 0 22 22" fill="none" xmlns="http://www.w3.org/2000/svg">
<path d="M15.582 2.22754H6.41536C3.66536 2.22754 1.83203 4.06087 1.83203 6.81087V12.3109C1.83203 15.0609 3.66536 16.8942 6.41536 16.8942V18.8467C6.41536 19.58 7.2312 20.02 7.8362 19.6075L11.9154 16.8942H15.582C18.332 16.8942 20.1654 15.0609 20.1654 12.3109V6.81087C20.1654 4.06087 18.332 2.22754 15.582 2.22754ZM10.9987 13.3834C10.6137 13.3834 10.3112 13.0717 10.3112 12.6959C10.3112 12.32 10.6137 12.0084 10.9987 12.0084C11.3837 12.0084 11.6862 12.32 11.6862 12.6959C11.6862 13.0717 11.3837 13.3834 10.9987 13.3834ZM12.1537 9.57921C11.7962 9.81754 11.6862 9.97337 11.6862 10.23V10.4225C11.6862 10.7984 11.3745 11.11 10.9987 11.11C10.6229 11.11 10.3112 10.7984 10.3112 10.4225V10.23C10.3112 9.16671 11.0904 8.64421 11.3837 8.44254C11.7229 8.21337 11.8329 8.05754 11.8329 7.81921C11.8329 7.36087 11.457 6.98504 10.9987 6.98504C10.5404 6.98504 10.1645 7.36087 10.1645 7.81921C10.1645 8.19504 9.85286 8.50671 9.47703 8.50671C9.1012 8.50671 8.78953 8.19504 8.78953 7.81921C8.78953 6.60004 9.77953 5.61004 10.9987 5.61004C12.2179 5.61004 13.2079 6.60004 13.2079 7.81921C13.2079 8.86421 12.4379 9.38671 12.1537 9.57921Z" fill="#FC7233"/>
</svg>
