<svg width="22" height="22" viewBox="0 0 22 22" fill="none" xmlns="http://www.w3.org/2000/svg">
<path d="M14.6654 1.83301H7.33203C3.66536 1.83301 1.83203 3.66634 1.83203 7.33301V19.2497C1.83203 19.7538 2.24453 20.1663 2.7487 20.1663H14.6654C18.332 20.1663 20.1654 18.333 20.1654 14.6663V7.33301C20.1654 3.66634 18.332 1.83301 14.6654 1.83301ZM12.832 13.9788H6.41536C6.03953 13.9788 5.72786 13.6672 5.72786 13.2913C5.72786 12.9155 6.03953 12.6038 6.41536 12.6038H12.832C13.2079 12.6038 13.5195 12.9155 13.5195 13.2913C13.5195 13.6672 13.2079 13.9788 12.832 13.9788ZM15.582 9.39551H6.41536C6.03953 9.39551 5.72786 9.08384 5.72786 8.70801C5.72786 8.33217 6.03953 8.02051 6.41536 8.02051H15.582C15.9579 8.02051 16.2695 8.33217 16.2695 8.70801C16.2695 9.08384 15.9579 9.39551 15.582 9.39551Z" fill="#FC7233"/>
</svg>
