<svg width="16" height="16" viewBox="0 0 16 16" fill="none" xmlns="http://www.w3.org/2000/svg">
<path d="M14.6688 5.03327C14.6688 5.47327 14.3088 5.83327 13.8688 5.83327H2.13545C1.69545 5.83327 1.33545 5.47327 1.33545 5.03327V5.0266C1.33545 3.49993 2.56878 2.2666 4.09545 2.2666H11.9021C13.4288 2.2666 14.6688 3.5066 14.6688 5.03327Z" fill="#292D32"/>
<path d="M1.33545 7.63301V10.973C1.33545 12.4997 2.56878 13.733 4.09545 13.733H11.9021C13.4288 13.733 14.6688 12.493 14.6688 10.9663V7.63301C14.6688 7.19301 14.3088 6.83301 13.8688 6.83301H2.13545C1.69545 6.83301 1.33545 7.19301 1.33545 7.63301ZM5.33545 11.4997H4.00212C3.72878 11.4997 3.50212 11.273 3.50212 10.9997C3.50212 10.7263 3.72878 10.4997 4.00212 10.4997H5.33545C5.60878 10.4997 5.83545 10.7263 5.83545 10.9997C5.83545 11.273 5.60878 11.4997 5.33545 11.4997ZM9.66878 11.4997H7.00212C6.72878 11.4997 6.50212 11.273 6.50212 10.9997C6.50212 10.7263 6.72878 10.4997 7.00212 10.4997H9.66878C9.94212 10.4997 10.1688 10.7263 10.1688 10.9997C10.1688 11.273 9.94212 11.4997 9.66878 11.4997Z" fill="#292D32"/>
</svg>
