<svg width="31" height="30" viewBox="0 0 31 30" fill="none" xmlns="http://www.w3.org/2000/svg">
<path opacity="0.4" d="M26.125 12.7375H22.5125C19.55 12.7375 17.1375 10.325 17.1375 7.3625V3.75C17.1375 3.0625 16.575 2.5 15.8875 2.5H10.5875C6.7375 2.5 3.625 5 3.625 9.4625V20.5375C3.625 25 6.7375 27.5 10.5875 27.5H20.4125C24.2625 27.5 27.375 25 27.375 20.5375V13.9875C27.375 13.3 26.8125 12.7375 26.125 12.7375Z" fill="#F26520"/>
<path d="M20.2516 2.76261C19.7391 2.25011 18.8516 2.60011 18.8516 3.31261V7.67511C18.8516 9.50011 20.4016 11.0126 22.2891 11.0126C23.4766 11.0251 25.1266 11.0251 26.5391 11.0251C27.2516 11.0251 27.6266 10.1876 27.1266 9.68761C25.3266 7.87511 22.1016 4.61261 20.2516 2.76261Z" fill="#F26520"/>
<path d="M14.4505 15.9124C13.713 15.6749 12.9255 15.8124 12.3755 16.2499C11.8005 15.8124 11.038 15.6749 10.313 15.9124C8.72549 16.4249 8.22549 18.2374 8.66299 19.6249C9.33799 21.7499 11.5755 22.8374 12.388 22.8374C13.1755 22.8374 15.4505 21.7124 16.113 19.6249C16.538 18.2374 16.038 16.4249 14.4505 15.9124Z" fill="#F26520"/>
</svg>
