<svg width="140" height="140" viewBox="0 0 140 140" fill="none" xmlns="http://www.w3.org/2000/svg">
<circle cx="70" cy="70" r="70" fill="#F93232"/>
<path d="M88.7758 54.625L73.9258 46.05C71.5008 44.65 68.5008 44.65 66.0508 46.05L51.2258 54.625C48.8008 56.025 47.3008 58.625 47.3008 61.45V78.55C47.3008 81.35 48.8008 83.95 51.2258 85.375L66.0758 93.95C68.5008 95.35 71.5008 95.35 73.9508 93.95L88.8008 85.375C91.2258 83.975 92.7258 81.375 92.7258 78.55V61.45C92.7008 58.625 91.2008 56.05 88.7758 54.625ZM68.1258 59.375C68.1258 58.35 68.9758 57.5 70.0008 57.5C71.0258 57.5 71.8758 58.35 71.8758 59.375V72.5C71.8758 73.525 71.0258 74.375 70.0008 74.375C68.9758 74.375 68.1258 73.525 68.1258 72.5V59.375ZM72.3008 81.575C72.1758 81.875 72.0008 82.15 71.7758 82.4C71.3008 82.875 70.6758 83.125 70.0008 83.125C69.6758 83.125 69.3508 83.05 69.0508 82.925C68.7258 82.8 68.4758 82.625 68.2258 82.4C68.0008 82.15 67.8258 81.875 67.6758 81.575C67.5508 81.275 67.5008 80.95 67.5008 80.625C67.5008 79.975 67.7508 79.325 68.2258 78.85C68.4758 78.625 68.7258 78.45 69.0508 78.325C69.9758 77.925 71.0758 78.15 71.7758 78.85C72.0008 79.1 72.1758 79.35 72.3008 79.675C72.4258 79.975 72.5008 80.3 72.5008 80.625C72.5008 80.95 72.4258 81.275 72.3008 81.575Z" fill="white"/>
</svg>
