<svg width="22" height="22" viewBox="0 0 22 22" fill="none" xmlns="http://www.w3.org/2000/svg">
<path d="M11.0001 12.1911C10.8809 12.1911 10.7617 12.1637 10.6517 12.0995L2.55757 7.41534C2.22757 7.22284 2.11755 6.80114 2.31005 6.47114C2.50255 6.14114 2.91505 6.03112 3.25422 6.22362L11.0001 10.7061L18.7001 6.25115C19.0301 6.05865 19.4517 6.17784 19.6442 6.49867C19.8367 6.82867 19.7176 7.25031 19.3967 7.44281L11.3576 12.0995C11.2384 12.1545 11.1192 12.1911 11.0001 12.1911Z" fill="#292D32"/>
<path d="M11 20.4958C10.6242 20.4958 10.3125 20.1841 10.3125 19.8083V11.4941C10.3125 11.1183 10.6242 10.8066 11 10.8066C11.3758 10.8066 11.6875 11.1183 11.6875 11.4941V19.8083C11.6875 20.1841 11.3758 20.4958 11 20.4958Z" fill="#292D32"/>
<path d="M11.0001 20.8548C10.1934 20.8548 9.3959 20.6806 8.7634 20.3323L3.86841 17.6098C2.53924 16.8765 1.50342 15.1073 1.50342 13.5857V8.40646C1.50342 6.8848 2.53924 5.12484 3.86841 4.38234L8.7634 1.66898C10.0192 0.972318 11.9809 0.972318 13.2367 1.66898L18.1317 4.39146C19.4609 5.12479 20.4967 6.89397 20.4967 8.41564V13.5948C20.4967 15.1165 19.4609 16.8765 18.1317 17.619L13.2367 20.3323C12.6042 20.6806 11.8067 20.8548 11.0001 20.8548ZM11.0001 2.52148C10.4226 2.52148 9.85425 2.64065 9.43258 2.86982L4.53758 5.59229C3.65758 6.08729 2.87842 7.39814 2.87842 8.41564V13.5948C2.87842 14.6032 3.65758 15.9231 4.53758 16.4181L9.43258 19.1406C10.2667 19.6081 11.7334 19.6081 12.5676 19.1406L17.4626 16.4181C18.3426 15.9231 19.1217 14.6123 19.1217 13.5948V8.41564C19.1217 7.4073 18.3426 6.08729 17.4626 5.59229L12.5676 2.86982C12.1459 2.64065 11.5776 2.52148 11.0001 2.52148Z" fill="#292D32"/>
<path d="M15.5836 12.824C15.2077 12.824 14.8961 12.5123 14.8961 12.1365V9.18487L6.53608 4.36319C6.20608 4.17069 6.09607 3.74901 6.28857 3.42817C6.48107 3.09817 6.89358 2.98816 7.22358 3.18066L15.9227 8.20403C16.1336 8.32319 16.2711 8.55233 16.2711 8.79983V12.1549C16.2711 12.5124 15.9594 12.824 15.5836 12.824Z" fill="#292D32"/>
</svg>
