<svg width="16" height="16" viewBox="0 0 16 16" fill="none" xmlns="http://www.w3.org/2000/svg">
<path d="M14.6684 8.4134V9.78673C14.6684 10.1601 14.3618 10.4667 13.9818 10.4667H12.6951C11.9751 10.4667 11.3151 9.94006 11.2551 9.22006C11.2151 8.80006 11.3751 8.40673 11.6551 8.1334C11.9018 7.88006 12.2418 7.7334 12.6151 7.7334H13.9818C14.3618 7.7334 14.6684 8.04006 14.6684 8.4134Z" fill="#292D32"/>
<path d="M10.2554 9.30628C10.1954 8.60628 10.4488 7.91961 10.9554 7.41961C11.3821 6.98628 11.9754 6.73294 12.6154 6.73294H12.9954C13.1821 6.73294 13.3354 6.57961 13.3088 6.39294C13.1288 5.09961 12.0088 4.09961 10.6688 4.09961H4.00212C2.52878 4.09961 1.33545 5.29294 1.33545 6.76628V11.4329C1.33545 12.9063 2.52878 14.0996 4.00212 14.0996H10.6688C12.0154 14.0996 13.1288 13.0996 13.3088 11.8063C13.3354 11.6196 13.1821 11.4663 12.9954 11.4663H12.6954C11.4288 11.4663 10.3621 10.5196 10.2554 9.30628ZM8.66878 7.93294H4.66878C4.39545 7.93294 4.16878 7.71294 4.16878 7.43294C4.16878 7.15294 4.39545 6.93294 4.66878 6.93294H8.66878C8.94212 6.93294 9.16878 7.15961 9.16878 7.43294C9.16878 7.70628 8.94212 7.93294 8.66878 7.93294Z" fill="#292D32"/>
<path d="M9.47506 2.65372C9.6484 2.83372 9.49506 3.10039 9.24173 3.10039H4.02173C3.29506 3.10039 2.61506 3.31372 2.0484 3.68039C1.7884 3.84706 1.43506 3.66706 1.56173 3.38039C1.93506 2.50706 2.8084 1.90039 3.81506 1.90039H7.56173C8.33506 1.90039 9.02173 2.17372 9.47506 2.65372Z" fill="#292D32"/>
</svg>
