<svg width="20" height="20" viewBox="0 0 20 20" fill="none" xmlns="http://www.w3.org/2000/svg">
<path d="M13.493 1.66675H6.50964C3.4763 1.66675 1.66797 3.47508 1.66797 6.50841V13.4834C1.66797 16.5251 3.4763 18.3334 6.50964 18.3334H13.4846C16.518 18.3334 18.3263 16.5251 18.3263 13.4917V6.50841C18.3346 3.47508 16.5263 1.66675 13.493 1.66675ZM9.1263 14.5917C8.88463 14.8334 8.4263 15.0667 8.09297 15.1167L6.04297 15.4084C5.96797 15.4167 5.89297 15.4251 5.81797 15.4251C5.4763 15.4251 5.15964 15.3084 4.93464 15.0834C4.65964 14.8084 4.54297 14.4084 4.60964 13.9667L4.9013 11.9167C4.9513 11.5751 5.1763 11.1251 5.4263 10.8834L9.14297 7.16675C9.20964 7.34175 9.2763 7.51675 9.36797 7.71675C9.4513 7.89175 9.54297 8.07508 9.64297 8.24175C9.7263 8.38342 9.81797 8.51675 9.89297 8.61675C9.98464 8.75842 10.093 8.89175 10.1596 8.96675C10.2013 9.02508 10.2346 9.06675 10.2513 9.08341C10.4596 9.33341 10.7013 9.56675 10.9096 9.74175C10.968 9.80008 11.0013 9.83342 11.018 9.84175C11.143 9.94175 11.268 10.0417 11.3763 10.1167C11.5096 10.2167 11.643 10.3084 11.7846 10.3834C11.9513 10.4834 12.1346 10.5751 12.318 10.6667C12.5096 10.7501 12.6846 10.8251 12.8596 10.8834L9.1263 14.5917ZM14.4763 9.24175L13.7096 10.0167C13.6596 10.0667 13.593 10.0917 13.5263 10.0917C13.5013 10.0917 13.468 10.0917 13.4513 10.0834C11.7596 9.60008 10.4096 8.25008 9.9263 6.55841C9.9013 6.46675 9.9263 6.36675 9.99297 6.30841L10.768 5.53341C12.0346 4.26675 13.243 4.29175 14.4846 5.53341C15.118 6.16675 15.4263 6.77508 15.4263 7.40842C15.418 8.00842 15.1096 8.60842 14.4763 9.24175Z" fill="#101828"/>
</svg>
