<svg width="20" height="21" viewBox="0 0 20 21" fill="none" xmlns="http://www.w3.org/2000/svg">
<path d="M7.42467 18.0895C7.26634 18.0895 7.10801 18.0312 6.98301 17.9062C6.74134 17.6645 6.74134 17.2645 6.98301 17.0229L12.4163 11.5895C12.8163 11.1895 12.8163 10.5395 12.4163 10.1395L6.98301 4.70619C6.74134 4.46452 6.74134 4.06452 6.98301 3.82285C7.22467 3.58118 7.62467 3.58118 7.86634 3.82285L13.2997 9.25619C13.7247 9.68118 13.9663 10.2562 13.9663 10.8645C13.9663 11.4729 13.733 12.0479 13.2997 12.4729L7.86634 17.9062C7.74134 18.0229 7.58301 18.0895 7.42467 18.0895Z" fill="#101828"/>
</svg>
