<svg width="186" height="181" viewBox="0 0 186 181" fill="none" xmlns="http://www.w3.org/2000/svg">
<circle cx="107" cy="4" r="3" fill="#FC7233" fill-opacity="0.6"/>
<circle cx="1" cy="75" r="1" fill="#FC7233" fill-opacity="0.6"/>
<circle cx="95" cy="90" r="70" fill="#F26520"/>
<path d="M108.999 73.2752L94.8742 65.6752C93.3742 64.8752 91.5992 64.8752 90.0992 65.6752L75.9992 73.2752C74.9742 73.8502 74.3242 74.9502 74.3242 76.1502C74.3242 77.3752 74.9492 78.4752 75.9992 79.0252L90.1242 86.6252C90.8742 87.0252 91.6992 87.2252 92.4992 87.2252C93.2992 87.2252 94.1492 87.0252 94.8742 86.6252L108.999 79.0252C110.024 78.4752 110.674 77.3752 110.674 76.1502C110.674 74.9502 110.024 73.8502 108.999 73.2752Z" fill="white"/>
<path d="M87.8 89.275L74.675 82.725C73.65 82.2 72.5 82.275 71.525 82.85C70.575 83.45 70 84.475 70 85.6V98C70 100.15 71.2 102.075 73.125 103.05L86.25 109.6C86.7 109.825 87.2 109.95 87.7 109.95C88.275 109.95 88.875 109.775 89.4 109.475C90.35 108.875 90.925 107.85 90.925 106.725V94.325C90.9 92.175 89.7 90.25 87.8 89.275Z" fill="white"/>
<path d="M115.002 85.6V91.75C113.802 91.4 112.527 91.25 111.252 91.25C107.852 91.25 104.527 92.425 101.902 94.525C98.3016 97.35 96.2516 101.625 96.2516 106.25C96.2516 107.475 96.4016 108.7 96.7266 109.875C96.3516 109.825 95.9766 109.675 95.6266 109.45C94.6766 108.875 94.1016 107.85 94.1016 106.725V94.325C94.1016 92.175 95.3016 90.25 97.2016 89.275L110.327 82.725C111.352 82.2 112.502 82.275 113.477 82.85C114.427 83.45 115.002 84.475 115.002 85.6Z" fill="white"/>
<path d="M119.95 99.125C117.9 96.6 114.775 95 111.25 95C108.6 95 106.15 95.925 104.225 97.475C101.625 99.525 100 102.7 100 106.25C100 109.775 101.6 112.9 104.125 114.95C106.05 116.55 108.55 117.5 111.25 117.5C114.1 117.5 116.675 116.425 118.675 114.7C121 112.625 122.5 109.625 122.5 106.25C122.5 103.55 121.55 101.05 119.95 99.125ZM113.825 106.95C113.825 107.6 113.475 108.225 112.925 108.55L109.4 110.65C109.1 110.825 108.775 110.925 108.425 110.925C107.8 110.925 107.175 110.6 106.825 110.025C106.3 109.125 106.575 107.975 107.475 107.45L110.075 105.9V102.75C110.075 101.725 110.925 100.875 111.95 100.875C112.975 100.875 113.825 101.725 113.825 102.75V106.95Z" fill="white"/>
<circle cx="20" cy="10" r="10" fill="#FC7233" fill-opacity="0.6"/>
<circle cx="178.5" cy="27.5" r="7.5" fill="#FC7233" fill-opacity="0.6"/>
<circle cx="165.5" cy="160.5" r="2.5" fill="#FC7233" fill-opacity="0.6"/>
<circle cx="62" cy="177" r="4" fill="#FC7233" fill-opacity="0.6"/>
<circle cx="10" cy="133" r="6" fill="#FC7233" fill-opacity="0.6"/>
<circle cx="122" cy="171" r="1" fill="#FC7233" fill-opacity="0.6"/>
<circle cx="170.5" cy="110.5" r="2.5" fill="#FC7233" fill-opacity="0.6"/>
</svg>
