<svg width="16" height="16" viewBox="0 0 16 16" fill="none" xmlns="http://www.w3.org/2000/svg">
<path d="M8.83333 7.99967C9.29357 7.99967 9.66667 7.62658 9.66667 7.16634C9.66667 6.7061 9.29357 6.33301 8.83333 6.33301C8.3731 6.33301 8 6.7061 8 7.16634C8 7.62658 8.3731 7.99967 8.83333 7.99967Z" fill="#292D32"/>
<path d="M10.7935 1.33301H5.20683C2.78016 1.33301 1.3335 2.77967 1.3335 5.20634V10.7863C1.3335 13.2197 2.78016 14.6663 5.20683 14.6663H10.7868C13.2135 14.6663 14.6602 13.2197 14.6602 10.793V5.20634C14.6668 2.77967 13.2202 1.33301 10.7935 1.33301ZM10.5935 8.97967C9.90683 9.65967 8.92683 9.87301 8.06016 9.59967L7.3535 10.2997C7.2935 10.3597 7.18683 10.3597 7.12016 10.2997L6.4735 9.65301C6.38016 9.55967 6.22016 9.55967 6.12016 9.65301C6.02016 9.74634 6.02683 9.90634 6.12016 10.0063L6.76683 10.653C6.8335 10.7197 6.8335 10.8263 6.76683 10.8863L6.4935 11.1597C6.38016 11.2797 6.16016 11.353 6.00016 11.333L5.2735 11.233C5.0335 11.1997 4.8135 10.973 4.7735 10.733L4.6735 10.0063C4.64683 9.84634 4.72683 9.62634 4.8335 9.51301L6.40016 7.94634C6.1335 7.07967 6.34016 6.09967 7.02683 5.41301C8.00683 4.43301 9.60683 4.43301 10.5935 5.41301C11.5802 6.39301 11.5802 7.99301 10.5935 8.97967Z" fill="#292D32"/>
</svg>
