<svg width="25" height="25" viewBox="0 0 25 25" fill="none" xmlns="http://www.w3.org/2000/svg">
<path opacity="0.4" d="M21.7029 11.7236V17.7136C21.7029 20.4736 19.4629 22.7136 16.7029 22.7136H7.96289C5.20289 22.7136 2.96289 20.4736 2.96289 17.7136V11.7936C3.72289 12.6136 4.80289 13.0836 5.97289 13.0836C7.23289 13.0836 8.44289 12.4536 9.20289 11.4436C9.88289 12.4536 11.0429 13.0836 12.3329 13.0836C13.6129 13.0836 14.7529 12.4836 15.4429 11.4836C16.2129 12.4736 17.4029 13.0836 18.6429 13.0836C19.8529 13.0836 20.9529 12.5936 21.7029 11.7236Z" fill="#F26520"/>
<path d="M15.3229 1.5835H9.32286L8.58286 8.9435C8.52286 9.6235 8.62286 10.2635 8.87286 10.8435C9.45286 12.2035 10.8129 13.0835 12.3329 13.0835C13.8729 13.0835 15.2029 12.2235 15.8029 10.8535C15.9829 10.4235 16.0929 9.9235 16.1029 9.4135V9.2235L15.3229 1.5835Z" fill="#F26520"/>
<path opacity="0.6" d="M22.6928 8.6035L22.4028 5.8335C21.9828 2.8135 20.6128 1.5835 17.6828 1.5835H13.8428L14.5828 9.0835C14.5928 9.1835 14.6028 9.2935 14.6028 9.4835C14.6628 10.0035 14.8228 10.4835 15.0628 10.9135C15.7828 12.2335 17.1828 13.0835 18.6428 13.0835C19.9728 13.0835 21.1728 12.4935 21.9228 11.4535C22.5228 10.6535 22.7928 9.6435 22.6928 8.6035Z" fill="#F26520"/>
<path opacity="0.6" d="M6.92315 1.5835C3.98315 1.5835 2.62315 2.8135 2.19315 5.8635L1.92315 8.6135C1.82315 9.6835 2.11315 10.7235 2.74315 11.5335C3.50315 12.5235 4.67315 13.0835 5.97315 13.0835C7.43315 13.0835 8.83315 12.2335 9.54315 10.9335C9.80315 10.4835 9.97315 9.9635 10.0231 9.4235L10.8031 1.5935H6.92315V1.5835Z" fill="#F26520"/>
<path d="M11.6831 16.9935C10.4131 17.1235 9.45312 18.2035 9.45312 19.4835V22.7135H15.2031V19.8335C15.2131 17.7435 13.9831 16.7535 11.6831 16.9935Z" fill="#F26520"/>
</svg>
