<svg width="20" height="20" viewBox="0 0 20 20" fill="none" xmlns="http://www.w3.org/2000/svg">
<path d="M14.168 2.91663H5.83464C3.33464 2.91663 1.66797 4.16663 1.66797 7.08329V12.9166C1.66797 15.8333 3.33464 17.0833 5.83464 17.0833H14.168C16.668 17.0833 18.3346 15.8333 18.3346 12.9166V7.08329C18.3346 4.16663 16.668 2.91663 14.168 2.91663ZM14.5596 7.99163L11.9513 10.075C11.4013 10.5166 10.7013 10.7333 10.0013 10.7333C9.3013 10.7333 8.59297 10.5166 8.0513 10.075L5.44297 7.99163C5.1763 7.77496 5.13464 7.37496 5.34297 7.10829C5.55964 6.84163 5.9513 6.79163 6.21797 7.00829L8.8263 9.09163C9.45964 9.59996 10.5346 9.59996 11.168 9.09163L13.7763 7.00829C14.043 6.79163 14.443 6.83329 14.6513 7.10829C14.868 7.37496 14.8263 7.77496 14.5596 7.99163Z" fill="#667085"/>
</svg>
