<svg width="20" height="20" viewBox="0 0 20 20" fill="none" xmlns="http://www.w3.org/2000/svg">
<path d="M14.168 2.91675H5.83464C3.33464 2.91675 1.66797 4.16675 1.66797 7.08342V12.9167C1.66797 15.8334 3.33464 17.0834 5.83464 17.0834H14.168C16.668 17.0834 18.3346 15.8334 18.3346 12.9167V7.08342C18.3346 4.16675 16.668 2.91675 14.168 2.91675ZM14.5596 7.99175L11.9513 10.0751C11.4013 10.5167 10.7013 10.7334 10.0013 10.7334C9.3013 10.7334 8.59297 10.5167 8.0513 10.0751L5.44297 7.99175C5.1763 7.77508 5.13464 7.37508 5.34297 7.10841C5.55964 6.84175 5.9513 6.79175 6.21797 7.00841L8.8263 9.09175C9.45964 9.60008 10.5346 9.60008 11.168 9.09175L13.7763 7.00841C14.043 6.79175 14.443 6.83341 14.6513 7.10841C14.868 7.37508 14.8263 7.77508 14.5596 7.99175Z" fill="#667085"/>
</svg>
