<svg width="16" height="16" viewBox="0 0 16 16" fill="none" xmlns="http://www.w3.org/2000/svg">
<g clip-path="url(#clip0_42_352781)">
<path d="M7.53834 1.51036C7.70914 1.09971 8.29086 1.09971 8.46166 1.51035L9.99874 5.20595C10.0707 5.37907 10.2336 5.49735 10.4204 5.51233L14.4102 5.83219C14.8535 5.86773 15.0332 6.42098 14.6955 6.71032L11.6557 9.31417C11.5133 9.43615 11.4512 9.62754 11.4947 9.80992L12.4234 13.7032C12.5265 14.1358 12.0559 14.4777 11.6764 14.2459L8.26063 12.1596C8.10062 12.0618 7.89938 12.0618 7.73937 12.1596L4.32363 14.2459C3.94408 14.4777 3.47345 14.1358 3.57665 13.7032L4.50534 9.80992C4.54884 9.62754 4.48665 9.43615 4.34426 9.31417L1.30453 6.71032C0.966758 6.42098 1.14652 5.86773 1.58985 5.83219L5.57955 5.51233C5.76645 5.49735 5.92925 5.37907 6.00126 5.20595L7.53834 1.51036Z" fill="#FDB022"/>
</g>
<defs>
<clipPath id="clip0_42_352781">
<rect width="16" height="16" fill="white"/>
</clipPath>
</defs>
</svg>
