<svg width="20" height="20" viewBox="0 0 20 20" fill="none" xmlns="http://www.w3.org/2000/svg">
<path d="M12.6981 18.9582H7.29806C5.72306 18.9582 4.57306 18.2998 4.1314 17.1665C3.67306 15.9832 4.09806 14.5165 5.19806 13.5248L9.06473 9.99984L5.19806 6.47484C4.09806 5.48317 3.67306 4.0165 4.1314 2.83317C4.57306 1.6915 5.72306 1.0415 7.29806 1.0415H12.6981C14.2731 1.0415 15.4231 1.69984 15.8647 2.83317C16.3231 4.0165 15.8981 5.48317 14.7981 6.47484L10.9314 9.99984L14.8064 13.5248C15.8981 14.5165 16.3314 15.9832 15.8731 17.1665C15.4231 18.2998 14.2731 18.9582 12.6981 18.9582ZM9.99806 10.8415L6.03973 14.4415C5.33973 15.0832 5.0314 16.0165 5.29806 16.7082C5.54806 17.3498 6.2564 17.7082 7.29806 17.7082H12.6981C13.7397 17.7082 14.4481 17.3582 14.6981 16.7082C14.9647 16.0165 14.6647 15.0832 13.9564 14.4415L9.99806 10.8415ZM7.29806 2.2915C6.2564 2.2915 5.54806 2.6415 5.29806 3.2915C5.0314 3.98317 5.3314 4.9165 6.03973 5.55817L9.99806 9.15817L13.9564 5.55817C14.6564 4.9165 14.9647 3.98317 14.6981 3.2915C14.4481 2.64984 13.7397 2.2915 12.6981 2.2915H7.29806Z" fill="#292D32"/>
</svg>
