<svg width="186" height="181" viewBox="0 0 186 181" fill="none" xmlns="http://www.w3.org/2000/svg">
<circle cx="95" cy="90" r="70" fill="#F26520"/>
<path d="M102.125 69.875V79.375H98.375V69.875C98.375 69.2 97.775 68.875 97.375 68.875C97.25 68.875 97.125 68.9 97 68.95L77.175 76.425C75.85 76.925 75 78.175 75 79.6V81.275C72.725 82.975 71.25 85.7 71.25 88.775V79.6C71.25 76.625 73.075 73.975 75.85 72.925L95.7 65.425C96.25 65.225 96.825 65.125 97.375 65.125C99.875 65.125 102.125 67.15 102.125 69.875Z" fill="white"/>
<path d="M118.75 96.25V98.75C118.75 99.425 118.225 99.975 117.525 100H113.875C112.55 100 111.35 99.025 111.25 97.725C111.175 96.95 111.475 96.225 111.975 95.725C112.425 95.25 113.05 95 113.725 95H117.5C118.225 95.025 118.75 95.575 118.75 96.25Z" fill="white"/>
<path d="M113.7 92.375H116.25C117.625 92.375 118.75 91.25 118.75 89.875V88.775C118.75 83.6 114.525 79.375 109.35 79.375H80.65C78.525 79.375 76.575 80.075 75 81.275C72.725 82.975 71.25 85.7 71.25 88.775V105.6C71.25 110.775 75.475 115 80.65 115H109.35C114.525 115 118.75 110.775 118.75 105.6V105.125C118.75 103.75 117.625 102.625 116.25 102.625H114.075C111.675 102.625 109.375 101.15 108.75 98.825C108.225 96.925 108.85 95.1 110.1 93.875C111.025 92.925 112.3 92.375 113.7 92.375ZM100 91.875H82.5C81.475 91.875 80.625 91.025 80.625 90C80.625 88.975 81.475 88.125 82.5 88.125H100C101.025 88.125 101.875 88.975 101.875 90C101.875 91.025 101.025 91.875 100 91.875Z" fill="white"/>
<circle cx="20" cy="10" r="10" fill="#FC7233" fill-opacity="0.6"/>
<circle cx="107" cy="4" r="3" fill="#FC7233" fill-opacity="0.6"/>
<circle cx="178.5" cy="27.5" r="7.5" fill="#FC7233" fill-opacity="0.6"/>
<circle cx="165.5" cy="160.5" r="2.5" fill="#FC7233" fill-opacity="0.6"/>
<circle cx="62" cy="177" r="4" fill="#FC7233" fill-opacity="0.6"/>
<circle cx="10" cy="133" r="6" fill="#FC7233" fill-opacity="0.6"/>
<circle cx="1" cy="75" r="1" fill="#FC7233" fill-opacity="0.6"/>
<circle cx="122" cy="171" r="1" fill="#FC7233" fill-opacity="0.6"/>
<circle cx="170.5" cy="110.5" r="2.5" fill="#FC7233" fill-opacity="0.6"/>
</svg>
