<svg width="20" height="20" viewBox="0 0 20 20" fill="none" xmlns="http://www.w3.org/2000/svg">
<path d="M17.5574 4.35842C16.2157 4.22508 14.8741 4.12508 13.5241 4.05008V4.04175L13.3407 2.95841C13.2157 2.19175 13.0324 1.04175 11.0824 1.04175H8.89907C6.95741 1.04175 6.77407 2.14175 6.64074 2.95008L6.46574 4.01675C5.69074 4.06675 4.91574 4.11675 4.14074 4.19175L2.44074 4.35842C2.09074 4.39175 1.84074 4.70008 1.87407 5.04175C1.90741 5.38342 2.20741 5.63342 2.55741 5.60008L4.25741 5.43342C8.62407 5.00008 13.0241 5.16675 17.4407 5.60842C17.4657 5.60842 17.4824 5.60842 17.5074 5.60842C17.8241 5.60842 18.0991 5.36675 18.1324 5.04175C18.1574 4.70008 17.9074 4.39175 17.5574 4.35842Z" fill="#D8304A"/>
<path d="M16.0264 6.78325C15.8264 6.57492 15.5514 6.45825 15.2681 6.45825H4.73475C4.45142 6.45825 4.16809 6.57492 3.97642 6.78325C3.78475 6.99159 3.67642 7.27492 3.69309 7.56659L4.20975 16.1166C4.30142 17.3833 4.41809 18.9666 7.32642 18.9666H12.6764C15.5848 18.9666 15.7014 17.3916 15.7931 16.1166L16.3098 7.57492C16.3264 7.27492 16.2181 6.99159 16.0264 6.78325ZM11.3848 14.7916H8.60975C8.26809 14.7916 7.98475 14.5083 7.98475 14.1666C7.98475 13.8249 8.26809 13.5416 8.60975 13.5416H11.3848C11.7264 13.5416 12.0098 13.8249 12.0098 14.1666C12.0098 14.5083 11.7264 14.7916 11.3848 14.7916ZM12.0848 11.4583H7.91809C7.57642 11.4583 7.29309 11.1749 7.29309 10.8333C7.29309 10.4916 7.57642 10.2083 7.91809 10.2083H12.0848C12.4264 10.2083 12.7098 10.4916 12.7098 10.8333C12.7098 11.1749 12.4264 11.4583 12.0848 11.4583Z" fill="#D8304A"/>
</svg>
