<svg width="24" height="25" viewBox="0 0 24 25" fill="none" xmlns="http://www.w3.org/2000/svg">
<path d="M21.4499 14.5039V15.5039C21.4499 15.7739 21.2399 15.9939 20.9599 16.0039H19.4999C18.9699 16.0039 18.4899 15.6139 18.4499 15.0939C18.4199 14.7839 18.5399 14.4939 18.7399 14.2939C18.9199 14.1039 19.1699 14.0039 19.4399 14.0039H20.9499C21.2399 14.0139 21.4499 14.2339 21.4499 14.5039Z" fill="white"/>
<path d="M17.9892 13.5539C17.4892 14.0439 17.2492 14.7739 17.4492 15.5339C17.7092 16.4639 18.6192 17.0539 19.5792 17.0539H20.4492C20.9992 17.0539 21.4492 17.5039 21.4492 18.0539V18.2439C21.4492 20.3139 19.7592 22.0039 17.6892 22.0039H6.20922C4.13922 22.0039 2.44922 20.3139 2.44922 18.2439V11.5139C2.44922 10.2839 3.03922 9.19391 3.94922 8.51391C4.57922 8.03391 5.35922 7.75391 6.20922 7.75391H17.6892C19.7592 7.75391 21.4492 9.44391 21.4492 11.5139V11.9539C21.4492 12.5039 20.9992 12.9539 20.4492 12.9539H19.4292C18.8692 12.9539 18.3592 13.1739 17.9892 13.5539Z" fill="white"/>
<path d="M16.1991 5.68377C16.4691 5.95377 16.2391 6.37377 15.8591 6.37377L8.17908 6.36377C7.73908 6.36377 7.50908 5.82377 7.82908 5.51377L9.44908 3.88377C10.8191 2.52377 13.0391 2.52377 14.4091 3.88377L16.1591 5.65377C16.1691 5.66377 16.1891 5.67377 16.1991 5.68377Z" fill="white"/>
</svg>
